<mxfile host="65bd71144e">
    <diagram id="wpLtBvmL6wAyDSZ4k2wr" name="Page-1">
        <mxGraphModel dx="2454" dy="1660" grid="1" gridSize="10" guides="1" tooltips="1" connect="1" arrows="1" fold="1" page="1" pageScale="1" pageWidth="1169" pageHeight="827" math="0" shadow="0">
            <root>
                <mxCell id="0"/>
                <mxCell id="1" parent="0"/>
                <mxCell id="155" value="Deployment Model license Comparison" style="rounded=1;whiteSpace=wrap;html=1;fontColor=#FFFFFF;verticalAlign=top;fontSize=28;spacingTop=5;labelBackgroundColor=none;fillColor=none;" vertex="1" parent="1">
                    <mxGeometry width="2440" height="1010" as="geometry"/>
                </mxCell>
                <mxCell id="2" value="Citrix on EC2 (Customer Managed)" style="whiteSpace=wrap;html=1;verticalAlign=top;rounded=1;" vertex="1" parent="1">
                    <mxGeometry x="40" y="80" width="560" height="850" as="geometry"/>
                </mxCell>
                <mxCell id="10" style="edgeStyle=none;html=1;entryX=0;entryY=0.5;entryDx=0;entryDy=0;" edge="1" parent="1" source="6" target="9">
                    <mxGeometry relative="1" as="geometry"/>
                </mxCell>
                <mxCell id="6" value="Windows Server" style="sketch=0;pointerEvents=1;shadow=0;dashed=0;html=1;strokeColor=none;fillColor=#005F4B;labelPosition=center;verticalLabelPosition=bottom;verticalAlign=top;align=center;outlineConnect=0;shape=mxgraph.veeam2.windows_server;" vertex="1" parent="1">
                    <mxGeometry x="90" y="160" width="40" height="52" as="geometry"/>
                </mxCell>
                <mxCell id="12" style="edgeStyle=none;html=1;entryX=0;entryY=0.5;entryDx=0;entryDy=0;spacingLeft=5;" edge="1" parent="1" source="9" target="11">
                    <mxGeometry relative="1" as="geometry"/>
                </mxCell>
                <mxCell id="9" value="&lt;span style=&quot;&quot;&gt;Delivery Controllers&lt;/span&gt;&lt;br style=&quot;&quot;&gt;&lt;span style=&quot;&quot;&gt;Storefronts&lt;/span&gt;&lt;br style=&quot;&quot;&gt;&lt;span style=&quot;&quot;&gt;License Server&lt;/span&gt;&lt;br style=&quot;&quot;&gt;&lt;span style=&quot;&quot;&gt;SQL Servers&lt;/span&gt;&lt;br style=&quot;&quot;&gt;&lt;span style=&quot;&quot;&gt;Desktop Directors&lt;/span&gt;&lt;br style=&quot;&quot;&gt;&lt;div style=&quot;&quot;&gt;&lt;span style=&quot;background-color: initial;&quot;&gt;File Servers&lt;/span&gt;&lt;/div&gt;" style="rounded=0;whiteSpace=wrap;html=1;align=left;spacingLeft=5;" vertex="1" parent="1">
                    <mxGeometry x="200" y="139" width="130" height="94" as="geometry"/>
                </mxCell>
                <mxCell id="11" value="License Included on EC2&lt;br&gt;&lt;br&gt;Bring Your Own License (BYOL) on EC2 Dedicated Hosts" style="rounded=0;whiteSpace=wrap;html=1;align=left;spacingLeft=5;" vertex="1" parent="1">
                    <mxGeometry x="390" y="139" width="160" height="94" as="geometry"/>
                </mxCell>
                <mxCell id="13" style="edgeStyle=none;html=1;entryX=0;entryY=0.5;entryDx=0;entryDy=0;" edge="1" source="14" target="16" parent="1">
                    <mxGeometry relative="1" as="geometry"/>
                </mxCell>
                <mxCell id="14" value="Windows Server" style="sketch=0;pointerEvents=1;shadow=0;dashed=0;html=1;strokeColor=none;fillColor=#005F4B;labelPosition=center;verticalLabelPosition=bottom;verticalAlign=top;align=center;outlineConnect=0;shape=mxgraph.veeam2.windows_server;" vertex="1" parent="1">
                    <mxGeometry x="90" y="281" width="40" height="52" as="geometry"/>
                </mxCell>
                <mxCell id="15" style="edgeStyle=none;html=1;entryX=0;entryY=0.5;entryDx=0;entryDy=0;spacingLeft=5;" edge="1" source="16" target="17" parent="1">
                    <mxGeometry relative="1" as="geometry"/>
                </mxCell>
                <mxCell id="16" value="XenApp Multi-Session" style="rounded=0;whiteSpace=wrap;html=1;align=left;spacingLeft=5;" vertex="1" parent="1">
                    <mxGeometry x="200" y="260" width="130" height="94" as="geometry"/>
                </mxCell>
                <mxCell id="17" value="License Included on EC2&lt;br&gt;&lt;br&gt;Bring Your Own License (BYOL) on EC2 Dedicated Hosts" style="rounded=0;whiteSpace=wrap;html=1;align=left;spacingLeft=5;" vertex="1" parent="1">
                    <mxGeometry x="390" y="260" width="160" height="94" as="geometry"/>
                </mxCell>
                <mxCell id="21" style="edgeStyle=none;html=1;entryX=0;entryY=0.5;entryDx=0;entryDy=0;" edge="1" parent="1" source="18" target="19">
                    <mxGeometry relative="1" as="geometry"/>
                </mxCell>
                <mxCell id="18" value="Windows Desktop" style="shadow=0;dashed=0;html=1;strokeColor=none;fillColor=#EF8F21;labelPosition=center;verticalLabelPosition=bottom;verticalAlign=top;align=center;outlineConnect=0;shape=mxgraph.veeam.ms_windows;" vertex="1" parent="1">
                    <mxGeometry x="90" y="507.6" width="44.8" height="44.8" as="geometry"/>
                </mxCell>
                <mxCell id="38" style="edgeStyle=none;html=1;entryX=0;entryY=0.5;entryDx=0;entryDy=0;spacingLeft=5;" edge="1" parent="1" source="19" target="20">
                    <mxGeometry relative="1" as="geometry"/>
                </mxCell>
                <mxCell id="19" value="XenDesktop VDI" style="rounded=0;whiteSpace=wrap;html=1;align=left;spacingLeft=5;" vertex="1" parent="1">
                    <mxGeometry x="200" y="500" width="130" height="60" as="geometry"/>
                </mxCell>
                <mxCell id="20" value="Bring Your Own License (BYOL) on EC2 Dedicated Hosts" style="rounded=0;whiteSpace=wrap;html=1;align=left;spacingLeft=5;" vertex="1" parent="1">
                    <mxGeometry x="390" y="500" width="160" height="60" as="geometry"/>
                </mxCell>
                <mxCell id="22" value="" style="verticalLabelPosition=bottom;sketch=0;aspect=fixed;html=1;verticalAlign=top;strokeColor=none;align=center;outlineConnect=0;shape=mxgraph.citrix.netscaler_gateway;" vertex="1" parent="1">
                    <mxGeometry x="62.39999999999997" y="615.25" width="100" height="39" as="geometry"/>
                </mxCell>
                <mxCell id="23" style="edgeStyle=none;html=1;entryX=0;entryY=0.5;entryDx=0;entryDy=0;" edge="1" source="22" target="25" parent="1">
                    <mxGeometry relative="1" as="geometry">
                        <mxPoint x="160" y="640" as="sourcePoint"/>
                    </mxGeometry>
                </mxCell>
                <mxCell id="27" style="edgeStyle=none;html=1;entryX=0;entryY=0.5;entryDx=0;entryDy=0;spacingLeft=5;" edge="1" parent="1" source="25" target="26">
                    <mxGeometry relative="1" as="geometry"/>
                </mxCell>
                <mxCell id="25" value="NetScaler Gateway&lt;span style=&quot;white-space: pre;&quot;&gt;&#9;&lt;/span&gt;" style="rounded=0;whiteSpace=wrap;html=1;align=left;spacingLeft=5;" vertex="1" parent="1">
                    <mxGeometry x="200" y="604.75" width="130" height="60" as="geometry"/>
                </mxCell>
                <mxCell id="26" value="Citrix perpetual license&lt;br&gt;&lt;br&gt;Citrix DaaS Subscription with Cloud entitlement" style="rounded=0;whiteSpace=wrap;html=1;align=left;spacingLeft=5;" vertex="1" parent="1">
                    <mxGeometry x="390" y="600" width="160" height="69.5" as="geometry"/>
                </mxCell>
                <mxCell id="31" value="" style="group" vertex="1" connectable="0" parent="1">
                    <mxGeometry x="80" y="710" width="70" height="70" as="geometry"/>
                </mxCell>
                <mxCell id="28" value="" style="verticalLabelPosition=bottom;sketch=0;aspect=fixed;html=1;verticalAlign=top;strokeColor=none;align=center;outlineConnect=0;shape=mxgraph.citrix.role_applications;" vertex="1" parent="31">
                    <mxGeometry x="30.882352941176467" y="30.882352941176467" width="39.11764705882352" height="39.11764705882352" as="geometry"/>
                </mxCell>
                <mxCell id="29" value="" style="verticalLabelPosition=bottom;sketch=0;aspect=fixed;html=1;verticalAlign=top;strokeColor=none;align=center;outlineConnect=0;shape=mxgraph.citrix.role_desktops;fillColor=#CCCCCC;gradientColor=#000000;gradientDirection=south;" vertex="1" parent="31">
                    <mxGeometry width="39.11764705882352" height="39.11764705882352" as="geometry"/>
                </mxCell>
                <mxCell id="30" value="" style="verticalLabelPosition=bottom;sketch=0;aspect=fixed;html=1;verticalAlign=top;strokeColor=none;align=center;outlineConnect=0;shape=mxgraph.citrix.citrix_hdx;" vertex="1" parent="31">
                    <mxGeometry y="49.41176470588235" width="38.91176470588235" height="20.588235294117645" as="geometry"/>
                </mxCell>
                <mxCell id="36" style="edgeStyle=none;html=1;entryX=0;entryY=0.5;entryDx=0;entryDy=0;spacingLeft=5;" edge="1" parent="1" source="32" target="35">
                    <mxGeometry relative="1" as="geometry"/>
                </mxCell>
                <mxCell id="49" style="edgeStyle=none;html=1;startArrow=classic;startFill=1;endArrow=none;endFill=0;" edge="1" parent="1" source="32">
                    <mxGeometry relative="1" as="geometry">
                        <mxPoint x="150" y="745" as="targetPoint"/>
                    </mxGeometry>
                </mxCell>
                <mxCell id="32" value="Users" style="rounded=0;whiteSpace=wrap;html=1;align=left;spacingLeft=5;" vertex="1" parent="1">
                    <mxGeometry x="200" y="715" width="130" height="60" as="geometry"/>
                </mxCell>
                <mxCell id="35" value="Citrix DaaS Subscription with Cloud entitlement&lt;br&gt;&lt;br&gt;Microsoft RDS CAL or VDA subscription" style="rounded=0;whiteSpace=wrap;html=1;align=left;spacingLeft=5;" vertex="1" parent="1">
                    <mxGeometry x="390" y="690" width="160" height="110" as="geometry"/>
                </mxCell>
                <mxCell id="42" style="edgeStyle=none;html=1;entryX=0;entryY=0.5;entryDx=0;entryDy=0;" edge="1" parent="1" source="37" target="40">
                    <mxGeometry relative="1" as="geometry"/>
                </mxCell>
                <mxCell id="37" value="" style="sketch=0;pointerEvents=1;shadow=0;dashed=0;html=1;strokeColor=none;fillColor=#505050;labelPosition=center;verticalLabelPosition=bottom;outlineConnect=0;verticalAlign=top;align=center;shape=mxgraph.office.clouds.office_365;" vertex="1" parent="1">
                    <mxGeometry x="69.75" y="832.5" width="80.5" height="50" as="geometry"/>
                </mxCell>
                <mxCell id="39" style="edgeStyle=none;html=1;entryX=0;entryY=0.5;entryDx=0;entryDy=0;spacingLeft=5;" edge="1" source="40" target="41" parent="1">
                    <mxGeometry relative="1" as="geometry"/>
                </mxCell>
                <mxCell id="40" value="Microsft Office&lt;span style=&quot;white-space: pre;&quot;&gt;&#9;&lt;/span&gt;" style="rounded=0;whiteSpace=wrap;html=1;align=left;spacingLeft=5;" vertex="1" parent="1">
                    <mxGeometry x="200" y="827.5" width="130" height="60" as="geometry"/>
                </mxCell>
                <mxCell id="41" value="License Included&amp;nbsp; Pro Plus LTSC 2021&lt;br&gt;&lt;br&gt;&lt;font color=&quot;#ff0000&quot;&gt;Cannot BYOL&lt;/font&gt;" style="rounded=0;whiteSpace=wrap;html=1;align=left;spacingLeft=5;" vertex="1" parent="1">
                    <mxGeometry x="390" y="820" width="160" height="75" as="geometry"/>
                </mxCell>
                <mxCell id="48" style="edgeStyle=none;html=1;entryX=0;entryY=0.5;entryDx=0;entryDy=0;" edge="1" parent="1" source="44" target="46">
                    <mxGeometry relative="1" as="geometry"/>
                </mxCell>
                <mxCell id="44" value="Microsoft&lt;br&gt;SQL Server" style="sketch=0;pointerEvents=1;shadow=0;dashed=0;html=1;strokeColor=none;fillColor=#DF8C42;labelPosition=center;verticalLabelPosition=bottom;verticalAlign=top;align=center;outlineConnect=0;shape=mxgraph.veeam2.microsoft_sql;" vertex="1" parent="1">
                    <mxGeometry x="93" y="410" width="34" height="34" as="geometry"/>
                </mxCell>
                <mxCell id="45" style="edgeStyle=none;html=1;entryX=0;entryY=0.5;entryDx=0;entryDy=0;spacingLeft=5;" edge="1" source="46" target="47" parent="1">
                    <mxGeometry relative="1" as="geometry"/>
                </mxCell>
                <mxCell id="46" value="Citrix datastore" style="rounded=0;whiteSpace=wrap;html=1;align=left;spacingLeft=5;" vertex="1" parent="1">
                    <mxGeometry x="200" y="380" width="130" height="94" as="geometry"/>
                </mxCell>
                <mxCell id="47" value="License Included on EC2&lt;br&gt;&lt;br&gt;Bring Your Own License (BYOL) on EC2 Dedicated Hosts / Shared Tenancy&lt;br&gt;&lt;br&gt;Amazon RDS&amp;nbsp;" style="rounded=0;whiteSpace=wrap;html=1;align=left;spacingLeft=5;" vertex="1" parent="1">
                    <mxGeometry x="390" y="372" width="160" height="110" as="geometry"/>
                </mxCell>
                <mxCell id="51" value="Citrix DaaS on EC2 (Citrix Cloud)" style="whiteSpace=wrap;html=1;verticalAlign=top;rounded=1;" vertex="1" parent="1">
                    <mxGeometry x="640" y="80" width="560" height="850" as="geometry"/>
                </mxCell>
                <mxCell id="52" style="edgeStyle=none;html=1;entryX=0;entryY=0.5;entryDx=0;entryDy=0;" edge="1" source="53" target="55" parent="1">
                    <mxGeometry relative="1" as="geometry"/>
                </mxCell>
                <mxCell id="53" value="Windows Server" style="sketch=0;pointerEvents=1;shadow=0;dashed=0;html=1;strokeColor=none;fillColor=#005F4B;labelPosition=center;verticalLabelPosition=bottom;verticalAlign=top;align=center;outlineConnect=0;shape=mxgraph.veeam2.windows_server;" vertex="1" parent="1">
                    <mxGeometry x="690" y="160" width="40" height="52" as="geometry"/>
                </mxCell>
                <mxCell id="54" style="edgeStyle=none;html=1;entryX=0;entryY=0.5;entryDx=0;entryDy=0;spacingLeft=5;" edge="1" source="55" target="56" parent="1">
                    <mxGeometry relative="1" as="geometry"/>
                </mxCell>
                <mxCell id="55" value="&lt;span style=&quot;&quot;&gt;Cloud Connectors&lt;br&gt;Storefronts (optional)&lt;/span&gt;&lt;br style=&quot;&quot;&gt;&lt;span style=&quot;background-color: initial;&quot;&gt;File Servers&lt;/span&gt;" style="rounded=0;whiteSpace=wrap;html=1;align=left;spacingLeft=5;" vertex="1" parent="1">
                    <mxGeometry x="800" y="139" width="130" height="94" as="geometry"/>
                </mxCell>
                <mxCell id="56" value="License Included on EC2&lt;br&gt;&lt;br&gt;Bring Your Own License (BYOL) on EC2 Dedicated Hosts" style="rounded=0;whiteSpace=wrap;html=1;align=left;spacingLeft=5;" vertex="1" parent="1">
                    <mxGeometry x="990" y="139" width="160" height="94" as="geometry"/>
                </mxCell>
                <mxCell id="57" style="edgeStyle=none;html=1;entryX=0;entryY=0.5;entryDx=0;entryDy=0;" edge="1" source="58" target="60" parent="1">
                    <mxGeometry relative="1" as="geometry"/>
                </mxCell>
                <mxCell id="58" value="Windows Server" style="sketch=0;pointerEvents=1;shadow=0;dashed=0;html=1;strokeColor=none;fillColor=#005F4B;labelPosition=center;verticalLabelPosition=bottom;verticalAlign=top;align=center;outlineConnect=0;shape=mxgraph.veeam2.windows_server;" vertex="1" parent="1">
                    <mxGeometry x="690" y="281" width="40" height="52" as="geometry"/>
                </mxCell>
                <mxCell id="59" style="edgeStyle=none;html=1;entryX=0;entryY=0.5;entryDx=0;entryDy=0;spacingLeft=5;" edge="1" source="60" target="61" parent="1">
                    <mxGeometry relative="1" as="geometry"/>
                </mxCell>
                <mxCell id="60" value="XenApp Multi-Session" style="rounded=0;whiteSpace=wrap;html=1;align=left;spacingLeft=5;" vertex="1" parent="1">
                    <mxGeometry x="800" y="260" width="130" height="94" as="geometry"/>
                </mxCell>
                <mxCell id="61" value="License Included on EC2&lt;br&gt;&lt;br&gt;Bring Your Own License (BYOL) on EC2 Dedicated Hosts" style="rounded=0;whiteSpace=wrap;html=1;align=left;spacingLeft=5;" vertex="1" parent="1">
                    <mxGeometry x="990" y="260" width="160" height="94" as="geometry"/>
                </mxCell>
                <mxCell id="62" style="edgeStyle=none;html=1;entryX=0;entryY=0.5;entryDx=0;entryDy=0;" edge="1" source="63" target="65" parent="1">
                    <mxGeometry relative="1" as="geometry"/>
                </mxCell>
                <mxCell id="63" value="Windows Desktop" style="shadow=0;dashed=0;html=1;strokeColor=none;fillColor=#EF8F21;labelPosition=center;verticalLabelPosition=bottom;verticalAlign=top;align=center;outlineConnect=0;shape=mxgraph.veeam.ms_windows;" vertex="1" parent="1">
                    <mxGeometry x="690" y="507.6" width="44.8" height="44.8" as="geometry"/>
                </mxCell>
                <mxCell id="64" style="edgeStyle=none;html=1;entryX=0;entryY=0.5;entryDx=0;entryDy=0;spacingLeft=5;" edge="1" source="65" target="66" parent="1">
                    <mxGeometry relative="1" as="geometry"/>
                </mxCell>
                <mxCell id="65" value="XenDesktop VDI" style="rounded=0;whiteSpace=wrap;html=1;align=left;spacingLeft=5;" vertex="1" parent="1">
                    <mxGeometry x="800" y="500" width="130" height="60" as="geometry"/>
                </mxCell>
                <mxCell id="66" value="Bring Your Own License (BYOL) on EC2 Dedicated Hosts" style="rounded=0;whiteSpace=wrap;html=1;align=left;spacingLeft=5;" vertex="1" parent="1">
                    <mxGeometry x="990" y="500" width="160" height="60" as="geometry"/>
                </mxCell>
                <mxCell id="67" value="" style="verticalLabelPosition=bottom;sketch=0;aspect=fixed;html=1;verticalAlign=top;strokeColor=none;align=center;outlineConnect=0;shape=mxgraph.citrix.netscaler_gateway;" vertex="1" parent="1">
                    <mxGeometry x="662.4" y="620" width="100" height="39" as="geometry"/>
                </mxCell>
                <mxCell id="68" style="edgeStyle=none;html=1;entryX=0;entryY=0.5;entryDx=0;entryDy=0;" edge="1" source="67" target="70" parent="1">
                    <mxGeometry relative="1" as="geometry">
                        <mxPoint x="760" y="640" as="sourcePoint"/>
                    </mxGeometry>
                </mxCell>
                <mxCell id="69" style="edgeStyle=none;html=1;entryX=0;entryY=0.5;entryDx=0;entryDy=0;spacingLeft=5;" edge="1" source="70" target="71" parent="1">
                    <mxGeometry relative="1" as="geometry"/>
                </mxCell>
                <mxCell id="70" value="NetScaler Gateway&lt;span style=&quot;white-space: pre;&quot;&gt;&#9;&lt;/span&gt;&amp;nbsp;(Optional)" style="rounded=0;whiteSpace=wrap;html=1;align=left;spacingLeft=5;" vertex="1" parent="1">
                    <mxGeometry x="800" y="609.5" width="130" height="60" as="geometry"/>
                </mxCell>
                <mxCell id="71" value="Citrix perpetual license&lt;br&gt;Citrix DaaS with Cloud Rights" style="rounded=0;whiteSpace=wrap;html=1;align=left;spacingLeft=5;" vertex="1" parent="1">
                    <mxGeometry x="990" y="609.5" width="160" height="60" as="geometry"/>
                </mxCell>
                <mxCell id="72" value="" style="group" vertex="1" connectable="0" parent="1">
                    <mxGeometry x="680" y="710" width="70" height="70" as="geometry"/>
                </mxCell>
                <mxCell id="73" value="" style="verticalLabelPosition=bottom;sketch=0;aspect=fixed;html=1;verticalAlign=top;strokeColor=none;align=center;outlineConnect=0;shape=mxgraph.citrix.role_applications;" vertex="1" parent="72">
                    <mxGeometry x="30.882352941176467" y="30.882352941176467" width="39.11764705882352" height="39.11764705882352" as="geometry"/>
                </mxCell>
                <mxCell id="74" value="" style="verticalLabelPosition=bottom;sketch=0;aspect=fixed;html=1;verticalAlign=top;strokeColor=none;align=center;outlineConnect=0;shape=mxgraph.citrix.role_desktops;fillColor=#CCCCCC;gradientColor=#000000;gradientDirection=south;" vertex="1" parent="72">
                    <mxGeometry width="39.11764705882352" height="39.11764705882352" as="geometry"/>
                </mxCell>
                <mxCell id="75" value="" style="verticalLabelPosition=bottom;sketch=0;aspect=fixed;html=1;verticalAlign=top;strokeColor=none;align=center;outlineConnect=0;shape=mxgraph.citrix.citrix_hdx;" vertex="1" parent="72">
                    <mxGeometry y="49.41176470588235" width="38.91176470588235" height="20.588235294117645" as="geometry"/>
                </mxCell>
                <mxCell id="76" style="edgeStyle=none;html=1;entryX=0;entryY=0.5;entryDx=0;entryDy=0;spacingLeft=5;" edge="1" source="78" target="79" parent="1">
                    <mxGeometry relative="1" as="geometry"/>
                </mxCell>
                <mxCell id="77" style="edgeStyle=none;html=1;startArrow=classic;startFill=1;endArrow=none;endFill=0;" edge="1" source="78" parent="1">
                    <mxGeometry relative="1" as="geometry">
                        <mxPoint x="750" y="745" as="targetPoint"/>
                    </mxGeometry>
                </mxCell>
                <mxCell id="78" value="Users" style="rounded=0;whiteSpace=wrap;html=1;align=left;spacingLeft=5;" vertex="1" parent="1">
                    <mxGeometry x="800" y="715" width="130" height="60" as="geometry"/>
                </mxCell>
                <mxCell id="79" value="Citrix DaaS Subscription&amp;nbsp;&lt;br&gt;&lt;br&gt;Microsoft RDS CAL or VDA subscription" style="rounded=0;whiteSpace=wrap;html=1;align=left;spacingLeft=5;" vertex="1" parent="1">
                    <mxGeometry x="990" y="690" width="160" height="110" as="geometry"/>
                </mxCell>
                <mxCell id="80" style="edgeStyle=none;html=1;entryX=0;entryY=0.5;entryDx=0;entryDy=0;" edge="1" source="81" target="83" parent="1">
                    <mxGeometry relative="1" as="geometry"/>
                </mxCell>
                <mxCell id="81" value="" style="sketch=0;pointerEvents=1;shadow=0;dashed=0;html=1;strokeColor=none;fillColor=#505050;labelPosition=center;verticalLabelPosition=bottom;outlineConnect=0;verticalAlign=top;align=center;shape=mxgraph.office.clouds.office_365;" vertex="1" parent="1">
                    <mxGeometry x="669.75" y="832.5" width="80.5" height="50" as="geometry"/>
                </mxCell>
                <mxCell id="82" style="edgeStyle=none;html=1;entryX=0;entryY=0.5;entryDx=0;entryDy=0;spacingLeft=5;" edge="1" source="83" target="84" parent="1">
                    <mxGeometry relative="1" as="geometry"/>
                </mxCell>
                <mxCell id="83" value="Microsft Office&lt;span style=&quot;white-space: pre;&quot;&gt;&#9;&lt;/span&gt;" style="rounded=0;whiteSpace=wrap;html=1;align=left;spacingLeft=5;" vertex="1" parent="1">
                    <mxGeometry x="800" y="827.5" width="130" height="60" as="geometry"/>
                </mxCell>
                <mxCell id="84" value="License Included&amp;nbsp; Pro Plus LTSC 2021&lt;br&gt;&lt;br&gt;&lt;font color=&quot;#ff0000&quot;&gt;Cannot BYOL&lt;/font&gt;" style="rounded=0;whiteSpace=wrap;html=1;align=left;spacingLeft=5;" vertex="1" parent="1">
                    <mxGeometry x="990" y="820" width="160" height="75" as="geometry"/>
                </mxCell>
                <mxCell id="90" value="Citrix DaaS on Workspaces Core (CoWSC)" style="whiteSpace=wrap;html=1;verticalAlign=top;rounded=1;" vertex="1" parent="1">
                    <mxGeometry x="1240" y="80" width="560" height="850" as="geometry"/>
                </mxCell>
                <mxCell id="91" style="edgeStyle=none;html=1;entryX=0;entryY=0.5;entryDx=0;entryDy=0;" edge="1" source="92" target="94" parent="1">
                    <mxGeometry relative="1" as="geometry"/>
                </mxCell>
                <mxCell id="92" value="Windows Server" style="sketch=0;pointerEvents=1;shadow=0;dashed=0;html=1;strokeColor=none;fillColor=#005F4B;labelPosition=center;verticalLabelPosition=bottom;verticalAlign=top;align=center;outlineConnect=0;shape=mxgraph.veeam2.windows_server;" vertex="1" parent="1">
                    <mxGeometry x="1290" y="160" width="40" height="52" as="geometry"/>
                </mxCell>
                <mxCell id="93" style="edgeStyle=none;html=1;entryX=0;entryY=0.5;entryDx=0;entryDy=0;spacingLeft=5;" edge="1" source="94" target="95" parent="1">
                    <mxGeometry relative="1" as="geometry"/>
                </mxCell>
                <mxCell id="94" value="&lt;span style=&quot;&quot;&gt;Cloud Connectors&lt;br&gt;Storefronts (optional)&lt;/span&gt;&lt;br style=&quot;&quot;&gt;&lt;span style=&quot;background-color: initial;&quot;&gt;File Servers&lt;/span&gt;" style="rounded=0;whiteSpace=wrap;html=1;align=left;spacingLeft=5;" vertex="1" parent="1">
                    <mxGeometry x="1400" y="139" width="130" height="94" as="geometry"/>
                </mxCell>
                <mxCell id="95" value="License Included on EC2&lt;br&gt;&lt;br&gt;Bring Your Own License (BYOL) on EC2 Dedicated Hosts" style="rounded=0;whiteSpace=wrap;html=1;align=left;spacingLeft=5;" vertex="1" parent="1">
                    <mxGeometry x="1590" y="139" width="160" height="94" as="geometry"/>
                </mxCell>
                <mxCell id="101" style="edgeStyle=none;html=1;entryX=0;entryY=0.5;entryDx=0;entryDy=0;" edge="1" source="102" target="104" parent="1">
                    <mxGeometry relative="1" as="geometry"/>
                </mxCell>
                <mxCell id="102" value="Windows Desktop" style="shadow=0;dashed=0;html=1;strokeColor=none;fillColor=#EF8F21;labelPosition=center;verticalLabelPosition=bottom;verticalAlign=top;align=center;outlineConnect=0;shape=mxgraph.veeam.ms_windows;" vertex="1" parent="1">
                    <mxGeometry x="1290" y="507.6" width="44.8" height="44.8" as="geometry"/>
                </mxCell>
                <mxCell id="103" style="edgeStyle=none;html=1;entryX=0;entryY=0.5;entryDx=0;entryDy=0;spacingLeft=5;" edge="1" source="104" target="105" parent="1">
                    <mxGeometry relative="1" as="geometry"/>
                </mxCell>
                <mxCell id="104" value="Workspace VDI&lt;br&gt;Persistent Desktop OS" style="rounded=0;whiteSpace=wrap;html=1;align=left;spacingLeft=5;" vertex="1" parent="1">
                    <mxGeometry x="1400" y="500" width="140" height="60" as="geometry"/>
                </mxCell>
                <mxCell id="105" value="Workspace Bundle License Included&amp;nbsp;&lt;br&gt;&lt;br&gt;BYOL M365 E3/E5 A3/A5 Business Premium" style="rounded=0;whiteSpace=wrap;html=1;align=left;spacingLeft=5;" vertex="1" parent="1">
                    <mxGeometry x="1590" y="480" width="160" height="100" as="geometry"/>
                </mxCell>
                <mxCell id="106" value="" style="verticalLabelPosition=bottom;sketch=0;aspect=fixed;html=1;verticalAlign=top;strokeColor=none;align=center;outlineConnect=0;shape=mxgraph.citrix.netscaler_gateway;" vertex="1" parent="1">
                    <mxGeometry x="1262.4" y="620" width="100" height="39" as="geometry"/>
                </mxCell>
                <mxCell id="107" style="edgeStyle=none;html=1;entryX=0;entryY=0.5;entryDx=0;entryDy=0;" edge="1" source="106" target="109" parent="1">
                    <mxGeometry relative="1" as="geometry">
                        <mxPoint x="1360" y="640" as="sourcePoint"/>
                    </mxGeometry>
                </mxCell>
                <mxCell id="108" style="edgeStyle=none;html=1;entryX=0;entryY=0.5;entryDx=0;entryDy=0;spacingLeft=5;" edge="1" source="109" target="110" parent="1">
                    <mxGeometry relative="1" as="geometry"/>
                </mxCell>
                <mxCell id="109" value="NetScaler Gateway&lt;span style=&quot;white-space: pre;&quot;&gt;&#9;&lt;/span&gt;&amp;nbsp;(Optional)" style="rounded=0;whiteSpace=wrap;html=1;align=left;spacingLeft=5;" vertex="1" parent="1">
                    <mxGeometry x="1400" y="609.5" width="130" height="60" as="geometry"/>
                </mxCell>
                <mxCell id="110" value="Citrix perpetual license&lt;br&gt;Citrix DaaS with Cloud Rights" style="rounded=0;whiteSpace=wrap;html=1;align=left;spacingLeft=5;" vertex="1" parent="1">
                    <mxGeometry x="1590" y="609.5" width="160" height="60" as="geometry"/>
                </mxCell>
                <mxCell id="111" value="" style="group" vertex="1" connectable="0" parent="1">
                    <mxGeometry x="1280" y="710" width="70" height="70" as="geometry"/>
                </mxCell>
                <mxCell id="112" value="" style="verticalLabelPosition=bottom;sketch=0;aspect=fixed;html=1;verticalAlign=top;strokeColor=none;align=center;outlineConnect=0;shape=mxgraph.citrix.role_applications;" vertex="1" parent="111">
                    <mxGeometry x="30.882352941176467" y="30.882352941176467" width="39.11764705882352" height="39.11764705882352" as="geometry"/>
                </mxCell>
                <mxCell id="113" value="" style="verticalLabelPosition=bottom;sketch=0;aspect=fixed;html=1;verticalAlign=top;strokeColor=none;align=center;outlineConnect=0;shape=mxgraph.citrix.role_desktops;fillColor=#CCCCCC;gradientColor=#000000;gradientDirection=south;" vertex="1" parent="111">
                    <mxGeometry width="39.11764705882352" height="39.11764705882352" as="geometry"/>
                </mxCell>
                <mxCell id="114" value="" style="verticalLabelPosition=bottom;sketch=0;aspect=fixed;html=1;verticalAlign=top;strokeColor=none;align=center;outlineConnect=0;shape=mxgraph.citrix.citrix_hdx;" vertex="1" parent="111">
                    <mxGeometry y="49.41176470588235" width="38.91176470588235" height="20.588235294117645" as="geometry"/>
                </mxCell>
                <mxCell id="115" style="edgeStyle=none;html=1;entryX=0;entryY=0.5;entryDx=0;entryDy=0;spacingLeft=5;" edge="1" source="117" target="118" parent="1">
                    <mxGeometry relative="1" as="geometry"/>
                </mxCell>
                <mxCell id="116" style="edgeStyle=none;html=1;startArrow=classic;startFill=1;endArrow=none;endFill=0;" edge="1" source="117" parent="1">
                    <mxGeometry relative="1" as="geometry">
                        <mxPoint x="1350" y="745" as="targetPoint"/>
                    </mxGeometry>
                </mxCell>
                <mxCell id="117" value="Users" style="rounded=0;whiteSpace=wrap;html=1;align=left;spacingLeft=5;" vertex="1" parent="1">
                    <mxGeometry x="1400" y="715" width="130" height="60" as="geometry"/>
                </mxCell>
                <mxCell id="118" value="Workspaces Subscription&lt;br&gt;&lt;br&gt;Citrix DaaS Subscription&lt;br&gt;&lt;br&gt;VDA subscription" style="rounded=0;whiteSpace=wrap;html=1;align=left;spacingLeft=5;" vertex="1" parent="1">
                    <mxGeometry x="1590" y="687.5" width="160" height="115" as="geometry"/>
                </mxCell>
                <mxCell id="119" style="edgeStyle=none;html=1;entryX=0;entryY=0.5;entryDx=0;entryDy=0;" edge="1" source="120" target="122" parent="1">
                    <mxGeometry relative="1" as="geometry"/>
                </mxCell>
                <mxCell id="120" value="" style="sketch=0;pointerEvents=1;shadow=0;dashed=0;html=1;strokeColor=none;fillColor=#505050;labelPosition=center;verticalLabelPosition=bottom;outlineConnect=0;verticalAlign=top;align=center;shape=mxgraph.office.clouds.office_365;" vertex="1" parent="1">
                    <mxGeometry x="1269.75" y="832.5" width="80.5" height="50" as="geometry"/>
                </mxCell>
                <mxCell id="121" style="edgeStyle=none;html=1;entryX=0;entryY=0.5;entryDx=0;entryDy=0;spacingLeft=5;" edge="1" source="122" target="123" parent="1">
                    <mxGeometry relative="1" as="geometry"/>
                </mxCell>
                <mxCell id="122" value="Microsft Office&lt;span style=&quot;white-space: pre;&quot;&gt;&#9;&lt;/span&gt;" style="rounded=0;whiteSpace=wrap;html=1;align=left;spacingLeft=5;" vertex="1" parent="1">
                    <mxGeometry x="1400" y="827.5" width="130" height="60" as="geometry"/>
                </mxCell>
                <mxCell id="123" value="Workspace Office Bundle license Included&lt;br&gt;&lt;br&gt;BYOL M365 E3/E5 A3/A5 Business Premium" style="rounded=0;whiteSpace=wrap;html=1;align=left;spacingLeft=5;" vertex="1" parent="1">
                    <mxGeometry x="1590" y="812.5" width="160" height="90" as="geometry"/>
                </mxCell>
                <mxCell id="124" value="Amazon Workspaces" style="whiteSpace=wrap;html=1;verticalAlign=top;rounded=1;" vertex="1" parent="1">
                    <mxGeometry x="1840" y="80" width="560" height="850" as="geometry"/>
                </mxCell>
                <mxCell id="130" style="edgeStyle=none;html=1;entryX=0;entryY=0.5;entryDx=0;entryDy=0;" edge="1" source="131" target="133" parent="1">
                    <mxGeometry relative="1" as="geometry"/>
                </mxCell>
                <mxCell id="131" value="Windows Desktop" style="shadow=0;dashed=0;html=1;strokeColor=none;fillColor=#EF8F21;labelPosition=center;verticalLabelPosition=bottom;verticalAlign=top;align=center;outlineConnect=0;shape=mxgraph.veeam.ms_windows;" vertex="1" parent="1">
                    <mxGeometry x="1890" y="507.6" width="44.8" height="44.8" as="geometry"/>
                </mxCell>
                <mxCell id="132" style="edgeStyle=none;html=1;entryX=0;entryY=0.5;entryDx=0;entryDy=0;spacingLeft=5;" edge="1" source="133" target="134" parent="1">
                    <mxGeometry relative="1" as="geometry"/>
                </mxCell>
                <mxCell id="133" value="Workspace VDI&lt;br&gt;Persistent Desktop OS" style="rounded=0;whiteSpace=wrap;html=1;align=left;spacingLeft=5;" vertex="1" parent="1">
                    <mxGeometry x="2000" y="500" width="140" height="60" as="geometry"/>
                </mxCell>
                <mxCell id="134" value="Workspace Bundle License Included&amp;nbsp;&lt;br&gt;&lt;br&gt;BYOL M365 E3/E5 A3/A5 Business Premium" style="rounded=0;whiteSpace=wrap;html=1;align=left;spacingLeft=5;" vertex="1" parent="1">
                    <mxGeometry x="2190" y="480" width="160" height="100" as="geometry"/>
                </mxCell>
                <mxCell id="144" style="edgeStyle=none;html=1;entryX=0;entryY=0.5;entryDx=0;entryDy=0;spacingLeft=5;" edge="1" source="146" target="147" parent="1">
                    <mxGeometry relative="1" as="geometry"/>
                </mxCell>
                <mxCell id="146" value="Users" style="rounded=0;whiteSpace=wrap;html=1;align=left;spacingLeft=5;" vertex="1" parent="1">
                    <mxGeometry x="2000" y="715" width="130" height="60" as="geometry"/>
                </mxCell>
                <mxCell id="147" value="Workspaces Subscription&lt;br&gt;&lt;br&gt;VDA subscription if BYOL Windows license" style="rounded=0;whiteSpace=wrap;html=1;align=left;spacingLeft=5;" vertex="1" parent="1">
                    <mxGeometry x="2190" y="687.5" width="160" height="115" as="geometry"/>
                </mxCell>
                <mxCell id="148" style="edgeStyle=none;html=1;entryX=0;entryY=0.5;entryDx=0;entryDy=0;" edge="1" source="149" target="151" parent="1">
                    <mxGeometry relative="1" as="geometry"/>
                </mxCell>
                <mxCell id="149" value="" style="sketch=0;pointerEvents=1;shadow=0;dashed=0;html=1;strokeColor=none;fillColor=#505050;labelPosition=center;verticalLabelPosition=bottom;outlineConnect=0;verticalAlign=top;align=center;shape=mxgraph.office.clouds.office_365;" vertex="1" parent="1">
                    <mxGeometry x="1869.75" y="832.5" width="80.5" height="50" as="geometry"/>
                </mxCell>
                <mxCell id="150" style="edgeStyle=none;html=1;entryX=0;entryY=0.5;entryDx=0;entryDy=0;spacingLeft=5;" edge="1" source="151" target="152" parent="1">
                    <mxGeometry relative="1" as="geometry"/>
                </mxCell>
                <mxCell id="151" value="Microsft Office&lt;span style=&quot;white-space: pre;&quot;&gt;&#9;&lt;/span&gt;" style="rounded=0;whiteSpace=wrap;html=1;align=left;spacingLeft=5;" vertex="1" parent="1">
                    <mxGeometry x="2000" y="827.5" width="130" height="60" as="geometry"/>
                </mxCell>
                <mxCell id="152" value="Workspace Office Bundle license Included&lt;br&gt;&lt;br&gt;BYOL M365 E3/E5 A3/A5 Business Premium" style="rounded=0;whiteSpace=wrap;html=1;align=left;spacingLeft=5;" vertex="1" parent="1">
                    <mxGeometry x="2190" y="812.5" width="160" height="90" as="geometry"/>
                </mxCell>
                <mxCell id="154" style="edgeStyle=none;html=1;entryX=0;entryY=0.5;entryDx=0;entryDy=0;fontColor=#FF0000;startArrow=none;startFill=0;endArrow=classic;endFill=1;" edge="1" parent="1" source="153" target="146">
                    <mxGeometry relative="1" as="geometry"/>
                </mxCell>
                <mxCell id="153" value="" style="outlineConnect=0;dashed=0;verticalLabelPosition=bottom;verticalAlign=top;align=center;html=1;shape=mxgraph.aws3.workspaces;fillColor=#D16A28;gradientColor=#F58435;gradientDirection=north;rounded=1;fontColor=#FF0000;" vertex="1" parent="1">
                    <mxGeometry x="1882.97" y="715" width="58.85" height="62.25" as="geometry"/>
                </mxCell>
            </root>
        </mxGraphModel>
    </diagram>
</mxfile>